PathFileType	4	(X/Y/Z)	C:\Users\Basilio\Documents\Thesis Gigler\squatting_fais\c3dfiles\077\SLS_front_pre3\markers_experimental.trc
DataRate	CameraRate	NumFrames	NumMarkers	Units	OrigDataRate	OrigDataStartFrame	OrigNumFrames
200.000000	200.000000	4	60	mm	200.000000	549	1466
Frame#	Time	FHD			LBHD			RBHD			C7			T10			CLAV			LSHO			LUUPA			LMUPA			LDUPA			LLEP			LMEP			LRAD			LUL			LRFIN			RSHO			RUPA1			RMUPA			RDUPA			RLEP			RMEP			RUL			RUFIN			LASI			RASI			USACR			LSACR			RSACR			LTHI1			LTHI2			LTHI3			LTHI4			LLFC			LMFC			LTIB1			LTIB2			LTIB3			LTIB4			LLMAL			LHEE			LMT1			LMT2			LMT5			RTHI			RTHI2			RTHI3			RTHI4			RLFC			RMFC			RTIB1			RTIB2			RTIB3			RTIB4			RLMAL			RMMAL			RHEE			RMT1			RMT2			RMT5			RRAD			
		X1	Y1	Z1	X2	Y2	Z2	X3	Y3	Z3	X4	Y4	Z4	X5	Y5	Z5	X6	Y6	Z6	X7	Y7	Z7	X8	Y8	Z8	X9	Y9	Z9	X10	Y10	Z10	X11	Y11	Z11	X12	Y12	Z12	X13	Y13	Z13	X14	Y14	Z14	X15	Y15	Z15	X16	Y16	Z16	X17	Y17	Z17	X18	Y18	Z18	X19	Y19	Z19	X20	Y20	Z20	X21	Y21	Z21	X22	Y22	Z22	X23	Y23	Z23	X24	Y24	Z24	X25	Y25	Z25	X26	Y26	Z26	X27	Y27	Z27	X28	Y28	Z28	X29	Y29	Z29	X30	Y30	Z30	X31	Y31	Z31	X32	Y32	Z32	X33	Y33	Z33	X34	Y34	Z34	X35	Y35	Z35	X36	Y36	Z36	X37	Y37	Z37	X38	Y38	Z38	X39	Y39	Z39	X40	Y40	Z40	X41	Y41	Z41	X42	Y42	Z42	X43	Y43	Z43	X44	Y44	Z44	X45	Y45	Z45	X46	Y46	Z46	X47	Y47	Z47	X48	Y48	Z48	X49	Y49	Z49	X50	Y50	Z50	X51	Y51	Z51	X52	Y52	Z52	X53	Y53	Z53	X54	Y54	Z54	X55	Y55	Z55	X56	Y56	Z56	X57	Y57	Z57	X58	Y58	Z58	X59	Y59	Z59	X60	Y60	Z60	

550	2.745	-307.9224548339844	1664.53125	-1118.162841796875	-435.336395263672	1541.918579101563	-1189.044311523438	-442.5346679687501	1536.52880859375	-1042.27587890625	-468.5815734863282	1408.623779296875	-1119.687622070313	-503.3031311035157	1086.82080078125	-1044.38916015625	-303.6785278320313	1359.935668945313	-1107.18408203125	-321.6376037597657	1380.968017578125	-1282.380615234375	-151.0361785888672	1323.839965820313	-1373.204956054688	-123.5438079833985	1356.969360351563	-1348.317260742188	-82.33961486816408	1321.777587890625	-1377.21484375	-17.96724510192871	1333.353271484375	-1371.20458984375	-13.35079956054688	1264.6767578125	-1338.827514648438	271.7045288085938	1363.860717773438	-1244.59326171875	278.5795593261719	1373.364868164063	-1324.252685546875	368.4428100585938	1394.769409179688	-1249.396606445313	-317.4054565429688	1417.5380859375	-954.1197509765627	-159.3670501708985	1394.888549804688	-844.648376464844	-133.667465209961	1415.671508789063	-881.3989868164065	-89.44039916992189	1394.100708007813	-844.6270751953127	-23.69499778747559	1397.795776367188	-855.8615722656252	-20.14110565185547	1321.405395507813	-874.2971191406252	269.4373168945313	1427.907470703125	-899.6718750000002	351.0196838378907	1430.970336914063	-983.4871215820315	-310.1815490722657	902.5136718750002	-1154.969116210938	-319.7998962402344	923.9465332031252	-883.9899902343752	-511.8287963867189	960.1817016601565	-1021.5078125	-516.8133544921876	931.7114868164065	-1050.960693359375	-517.6200561523439	926.5676879882815	-996.319030761719	-271.3265380859376	702.6812133789064	-1222.096557617188	-202.8998718261719	654.7208862304689	-1227.997680664063	-162.7327270507813	681.6675415039064	-1226.276245117188	-197.2275390625001	594.0816040039064	-1214.824340820313	-97.99346160888675	479.8385009765626	-1191.705444335938	-73.47852325439455	473.7744445800782	-1061.049072265625	-155.2186737060547	282.2602539062501	-1081.928100585938	-212.1915588378907	248.5644683837891	-1144.429077148438	-185.8836975097657	238.3213653564454	-1108.522705078125	-229.5092315673829	183.6170806884766	-1061.906982421875	-339.5779418945313	101.9178085327149	-1088.189819335938	-404.6461791992189	80.87390899658205	-1027.193359375	-190.0489044189453	56.37707138061525	-1056.592895507813	-202.9122619628907	40.34626770019532	-1103.228637695313	-306.2136535644532	122.8831634521485	-1007.482055664063	-127.6461715698242	692.7084960937501	-827.2545166015627	-60.94110488891603	697.7584838867189	-833.1502685546877	-45.38661193847657	726.8007202148439	-840.365173339844	-10.51036548614502	633.2677001953126	-848.0728759765627	40.50338745117188	593.2044677734376	-850.5726318359377	61.65248489379884	605.2377319335939	-979.3858032226565	169.2757263183594	526.1878051757814	-875.370300292969	175.3220367431641	424.6336975097657	-842.3323974609377	208.3156738281251	449.2423095703126	-865.2733154296877	238.3213653564454	419.6936950683595	-906.9411621093752	311.2612609863282	239.7123565673829	-869.123962402344	320.1643371582032	264.3598632812501	-957.9805908203127	295.6910400390626	163.4556274414063	-927.3759765625002	456.3365173339845	325.2586669921876	-921.1978759765627	453.1318664550782	321.9125061035157	-882.9385375976565	457.5874328613282	292.8510131835938	-836.807556152344	253.026840209961	1405.589599609375	-973.297302246094	
551	2.75	-307.7320556640626	1664.134765625	-1117.664672851563	-435.1809387207032	1541.739013671875	-1188.810302734375	-442.3786010742189	1536.233642578125	-1041.894897460938	-468.4433898925782	1408.3720703125	-1119.4560546875	-503.348846435547	1086.435546875	-1044.47900390625	-303.5482177734376	1359.5966796875	-1107.008666992188	-321.5558166503907	1380.875122070313	-1282.151977539063	-151.1506042480469	1324.271484375	-1373.148681640625	-123.3670043945313	1357.17626953125	-1348.117065429688	-82.56656646728517	1322.2177734375	-1377.178100585938	-17.84098052978516	1333.6494140625	-1371.242553710938	-13.19687271118164	1264.8310546875	-1338.913696289063	271.8849182128907	1364.068481445313	-1244.8369140625	278.8672180175782	1373.673706054688	-1324.42138671875	368.7341613769532	1394.680908203125	-1249.6494140625	-317.1189880371094	1417.05126953125	-953.8720703125002	-159.1707000732422	1394.121215820313	-844.337097167969	-133.4782257080078	1414.982543945313	-881.1387939453127	-89.31575775146486	1393.566162109375	-844.5189208984377	-23.37951278686524	1397.214477539063	-855.5661621093752	-19.93193626403809	1320.744506835938	-874.3210449218752	269.6407165527344	1427.321899414063	-899.6680297851565	351.0068664550782	1430.654663085938	-983.505065917969	-310.0368347167969	902.5584716796877	-1154.850830078125	-320.0454406738282	923.618591308594	-883.839050292969	-511.9183349609376	959.9932250976565	-1021.606689453125	-516.8236694335939	931.4116210937502	-1051.110229492188	-517.7579956054689	926.184753417969	-996.4465942382815	-271.1524047851563	702.4393310546876	-1221.962768554688	-201.5284576416016	653.7835083007814	-1227.329711914063	-161.7082977294922	681.2677001953126	-1225.544067382813	-196.7696533203126	593.9841918945314	-1214.300659179688	-97.53182220458987	479.9269409179689	-1190.92041015625	-73.05055236816408	473.7768859863282	-1060.3525390625	-155.362533569336	281.5636901855469	-1081.618774414063	-211.9523315429688	248.6343078613282	-1143.995361328125	-185.6983795166016	238.3533325195313	-1108.234497070313	-229.4119415283204	183.5607604980469	-1061.652709960938	-339.4990844726563	101.9600524902344	-1088.200805664063	-404.6330871582032	80.86534881591798	-1027.238159179688	-190.1732177734375	56.72824859619142	-1056.58154296875	-202.7295379638672	40.2934684753418	-1103.216430664063	-306.1989135742188	122.8554916381836	-1007.42529296875	-127.8883895874024	691.8966674804689	-827.6751098632815	-61.20563125610353	696.9534912109376	-833.2681274414065	-45.49969482421876	726.5031738281251	-840.3508911132815	-10.47579193115235	633.2535400390626	-847.9456787109377	40.48292541503907	593.0692749023439	-850.447204589844	61.4498748779297	605.0453491210939	-979.3469238281252	169.2193145751953	526.0917968750001	-875.2965087890627	175.4864959716797	424.6188049316407	-842.2402954101565	208.3402862548829	449.2017517089845	-865.2685546875002	238.3445892333985	419.6997070312501	-906.951843261719	311.5263061523438	239.683334350586	-869.130065917969	320.3586120605469	264.2805480957032	-957.7877197265627	295.9872741699219	163.4664916992188	-927.3240966796877	456.6723022460939	325.9237365722657	-921.4292602539065	453.6958618164064	322.6697692871094	-883.0688476562502	457.8030395507814	293.0070190429688	-836.7545166015627	253.1438446044922	1405.536254882813	-973.5117187500002	
552	2.755	-307.5565185546876	1663.73681640625	-1117.204711914063	-435.0106506347657	1541.5009765625	-1188.449829101563	-442.0346984863282	1536.734497070313	-1041.9541015625	-467.9167480468751	1408.0224609375	-1119.093383789063	-503.2934875488282	1086.239990234375	-1044.510375976563	-303.6380004882813	1359.593383789063	-1106.9111328125	-321.4600219726563	1380.764526367188	-1281.932373046875	-151.0971374511719	1324.604370117188	-1373.186767578125	-123.2234497070313	1357.472534179688	-1347.903442382813	-82.51354217529298	1322.469604492188	-1377.066162109375	-17.67849731445313	1333.843383789063	-1371.18408203125	-13.09296607971192	1264.993774414063	-1338.932861328125	272.0991516113282	1364.331665039063	-1245.052001953125	279.2047729492188	1374.041625976563	-1324.697387695313	368.9519042968751	1394.888793945313	-1249.806640625	-316.9129638671876	1416.51904296875	-953.6790771484377	-158.9251708984375	1393.480224609375	-844.0534667968752	-133.2798767089844	1414.154418945313	-880.6768188476565	-89.16598510742189	1392.77734375	-844.3399658203127	-23.29949951171875	1396.61669921875	-855.4526977539065	-19.72665405273438	1320.190185546875	-874.3213500976565	269.8423156738282	1426.637939453125	-899.6770019531252	351.1119079589844	1430.254638671875	-983.6456298828127	-310.0617675781251	902.2456054687502	-1154.782104492188	-320.2738952636719	923.2310180664065	-883.7859497070315	-512.0128784179689	959.7474365234377	-1021.671325683594	-516.8480224609376	931.0974121093752	-1051.173583984375	-517.9581298828126	925.830017089844	-996.4815063476565	-270.7251281738282	702.0499877929689	-1222.076171875	-201.2675018310547	653.6105346679689	-1226.98095703125	-161.4437255859375	681.2673339843751	-1225.0439453125	-196.4432220458985	593.9103393554689	-1214.0087890625	-97.0018005371094	479.7283325195314	-1190.399536132813	-72.68664550781251	473.6964416503907	-1059.859619140625	-155.1917266845703	281.3854064941407	-1081.274780273438	-211.7187805175782	248.6330871582032	-1143.734008789063	-185.6106719970703	238.3543548583985	-1108.052734375	-229.2625732421876	183.4775695800782	-1061.448120117188	-339.4331054687501	101.958610534668	-1088.156616210938	-404.6320190429689	80.90213775634767	-1027.227661132813	-189.9732666015625	56.0677833557129	-1056.399291992188	-202.9036407470704	40.29742813110352	-1103.174926757813	-306.2486572265626	122.8625869750977	-1007.328125	-127.8275299072266	692.1493530273439	-827.0693359375002	-61.1879234313965	697.1345825195314	-832.9975585937502	-45.51210021972657	726.4560546875001	-840.1520996093752	-10.56774711608887	632.9540405273439	-847.9609375000002	40.45532989501954	592.9274291992189	-850.3426513671877	61.35747146606447	604.9151611328126	-979.299743652344	169.2690582275391	525.9909057617189	-875.2107543945315	175.5703735351563	424.5760192871095	-842.0946044921877	208.4805603027344	449.150115966797	-865.2097167968752	238.4895629882813	419.6743774414064	-906.8944091796877	311.7668457031251	239.740707397461	-869.0423583984377	320.4729003906251	264.2980346679688	-957.7116699218752	296.2517089843751	163.3109283447266	-927.2625122070315	456.6180419921876	325.5243530273438	-921.196228027344	453.3034973144532	322.0252075195313	-882.8492431640627	457.9221191406251	293.1540832519532	-836.6604003906252	253.2026519775391	1405.098999023438	-973.5261840820315	
553	2.76	-307.2648620605469	1663.45654296875	-1116.702514648438	-434.7793884277345	1541.475219726563	-1188.1259765625	-441.8358764648439	1536.343994140625	-1041.696411132813	-467.8151245117189	1407.714965820313	-1118.829711914063	-503.3153076171876	1085.949584960938	-1044.568725585938	-303.6210937500001	1359.44970703125	-1106.7294921875	-321.0158386230469	1380.661254882813	-1281.692749023438	-151.1781311035157	1324.958618164063	-1373.20263671875	-123.0309600830078	1357.629028320313	-1347.688354492188	-82.29662322998048	1322.690307617188	-1377.02001953125	-17.44038963317871	1334.00537109375	-1371.13037109375	-12.98543930053711	1265.28955078125	-1339.252563476563	272.3317260742188	1364.515747070313	-1245.147827148438	279.4152221679688	1374.52294921875	-1324.900512695313	369.1895141601563	1395.003784179688	-1249.95556640625	-316.8008117675782	1415.982543945313	-953.4802856445315	-158.7147369384766	1392.86962890625	-843.7839355468752	-133.1323699951172	1413.831298828125	-880.573669433594	-88.82948303222658	1391.929809570313	-844.0469970703127	-23.10400390625	1395.892333984375	-855.4544067382815	-19.6133098602295	1319.509521484375	-874.376159667969	269.9292602539063	1426.092895507813	-899.7476806640627	351.2869567871094	1429.83203125	-983.8364868164065	-309.9740600585938	902.116882324219	-1154.654052734375	-320.5106201171876	922.7976684570315	-883.624694824219	-512.1062011718751	959.4342041015627	-1021.765930175781	-516.9179687500001	930.809265136719	-1051.196044921875	-518.0201416015626	925.438415527344	-996.573913574219	-270.2626342773438	701.6855468750001	-1221.999877929688	-201.0414428710938	653.2759399414064	-1226.68798828125	-161.1476287841797	681.2248535156251	-1224.667602539063	-196.2473449707032	593.7294311523439	-1213.673828125	-96.82927703857425	479.6735229492189	-1190.046508789063	-72.3511428833008	473.6382751464845	-1059.499145507813	-155.0826568603516	281.4227600097657	-1081.041870117188	-211.4011993408204	248.5594177246094	-1143.490234375	-185.4174957275391	238.3791503906251	-1107.919311523438	-229.1656341552735	183.4025115966797	-1061.28173828125	-339.4278869628907	102.0090026855469	-1088.126586914063	-404.6409606933595	80.9027786254883	-1027.2412109375	-189.9227447509766	56.00329589843751	-1056.325805664063	-202.9331817626954	40.29491806030274	-1103.177368164063	-306.2966918945313	122.8742904663086	-1007.238952636719	-127.9972000122071	691.6974487304689	-826.998962402344	-61.40497207641603	696.6099243164064	-832.996032714844	-45.57648086547852	726.2541503906251	-840.048522949219	-10.60726737976074	632.6509399414064	-847.8105468750002	40.42824172973634	592.7110595703126	-850.278503417969	61.3557472229004	604.6631469726564	-979.2364501953127	169.3123168945313	525.7807617187501	-875.141540527344	175.7106475830078	424.4442138671876	-842.111511230469	208.5574951171876	449.1116638183595	-865.071960449219	238.5418701171876	419.6479797363282	-906.8289794921877	312.0427856445313	239.8321685791016	-868.9031982421877	320.7148132324219	264.3276062011719	-957.5313110351565	296.6260375976563	163.2438354492188	-927.1397094726565	456.7315063476564	325.7134704589844	-921.124938964844	453.574676513672	322.3773498535157	-882.7124023437502	458.1283264160157	293.2789001464844	-836.5994873046877	253.3297729492188	1404.74072265625	-973.6347656250002	
